PathFileType	4	(X/Y/Z)	C:/Users/beibeiliu/ov580/test_trc/User1\sequence.9_training_dense_right.trc
DataRate	CameraRate	NumFrames	NumMarkers	Units	OrigDataRate	OrigDataStartFrame	OrigNumFrames
120	120	8	19	mm	120	118	314
Frame#	Time	ThumbCMC			ThumbMCP			ThumbIP			ThumbTip			IndexMCP			IndexPIP			IndexTip			MiddleMCP			MiddlePIP			MiddleTip			RingMCP			RingPIP			RingTip			PinkyMCP			PinkyPIP			PinkyTip			BackHand1			BackHand2			BackHand3	
		X0	Y0	Z0	X1	Y1	Z1	X2	Y2	Z2	X3	Y3	Z3	X4	Y4	Z4	X5	Y5	Z5	X6	Y6	Z6	X7	Y7	Z7	X8	Y8	Z8	X9	Y9	Z9	X10	Y10	Z10	X11	Y11	Z11	X12	Y12	Z12	X13	Y13	Z13	X14	Y14	Z14	X15	Y15	Z15	X16	Y16	Z16	X17	Y17	Z17	X18	Y18	Z18	
117	0.975	139.294	123.078	14.7886	115.342	132.122	0.332494	103.211	146.793	-16.9724	85.5517	161.642	-19.9868	170.869	150.462	-60.2341	174.481	159.359	-82.948	184.379	165.937	-106.985	200.495	137.941	-61.1274	208.115	147.37	-81.9434	222.636	157.727	-109.298	216.374	113.234	-55.1232	228.414	122.699	-75.9934	240.314	131.897	-99.2063	219.807	79.782	-48.56	227.797	79.0031	-60.5677	245.299	83.3677	-81.0953	200.809	104.589	-8.80415	199.926	94.6135	26.3254	177.064	126.038	6.53698	
118	0.983333	133.773	120.063	16.6135	111.806	125.115	-4.80526	94.1051	136.485	-15.8312	77.4503	147.547	-23.5973	162.731	147.156	-58.3904	165.15	158.138	-82.6583	171.652	167.345	-107.463	192.866	139.902	-60.1218	201.144	152.275	-83.5701	215.264	162.558	-109.752	214.852	121.229	-57.8127	226.494	132.461	-79.5092	232.564	143.053	-98.7443	219.435	87.4771	-44.8414	235.296	85.3721	-63.4024	246.788	93.5034	-77.3018	201.522	108.487	-6.84001	200.187	100.675	24.9899	174.295	127.83	5.82683	
119	0.991667	131.305	114.65	14.0805	107.667	117.808	-3.31147	91.5234	126.627	-18.1996	72.1107	133.254	-26.4391	156.592	145.465	-57.8851	161.342	156.676	-84.357	165.423	166.019	-106.918	189.787	145.181	-62.182	196.194	157.197	-84.8945	207.856	166.516	-108.101	207.291	126.664	-55.2187	221.281	140.103	-78.9489	225.355	149.059	-97.5227	222.374	92.7437	-43.0039	235.268	96.3946	-63.1052	249.343	105.162	-76.6491	197.346	111.31	-6.74129	197.109	108.017	23.0395	166.612	126.613	5.95209	
120	1	128.005	110.083	15.8119	103.509	112.499	-3.72416	87.6003	117.838	-20.3573	68.6544	121.822	-27.909	154.287	145.567	-61.3965	153.775	157.024	-82.4525	160.28	165.681	-104.448	182.475	147.901	-62.023	190.688	158.728	-81.5526	199.786	174.077	-106.69	204.926	130.821	-54.1469	215.693	145.006	-74.1471	222.656	155.638	-95.4622	222.783	99.2207	-42.8387	234.113	103.453	-57.7414	249.402	115.621	-74.3233	194.843	116.319	-9.79147	194.177	109.959	27.5407	164.51	127.004	7.15244	
121	1.00833	125.745	105.295	16.1147	103.887	101.073	1.11819	84.4913	110.384	-20.3511	65.1769	111.89	-27.5192	149.227	142.262	-56.2264	146.236	157.439	-81.8714	152.704	168.977	-104.127	180.447	145.625	-56.5194	182.851	162.241	-78.7895	193.172	179.607	-106.287	203.154	134.319	-51.596	210.797	150.854	-74.6258	212.96	164.39	-95.6453	221.521	106.632	-43.3396	230.52	113.003	-57.4478	246.408	125.287	-71.8976	193.199	118.199	-6.88936	194.514	109.885	26.0019	163.301	123.416	6.81182	
122	1.01667	122.757	100.331	18.1484	100.701	95.3016	1.95585	83.4855	101.696	-16.9032	65.245	104.915	-29.2594	140.044	142.904	-53.8031	139.115	157.916	-76.8188	141.278	167.445	-95.5925	171.273	147.616	-52.547	176.116	163.731	-75.3883	179.808	183.588	-101.076	196.695	139.323	-50.2165	200.786	156.559	-70.8989	206.075	170.083	-92.2545	215.775	114.64	-44.173	225.274	119.786	-54.9963	242.98	133.296	-71.0209	191.56	121.101	-4.82385	192.654	110.179	31.4425	154.346	122.315	14.1334	
123	1.025	121.658	93.2926	23.2193	97.7311	90.5767	2.86034	83.318	94.2688	-12.9386	59.1487	94.7635	-22.7769	133.051	141.809	-46.8952	130.399	157.02	-67.3834	134.621	173.418	-92.8035	164.954	150.516	-49.0198	164.652	169.218	-71.5822	166.723	187.191	-94.006	187.791	145.226	-46.5235	189.496	161.898	-65.9025	194.047	174.685	-85.9558	213.313	118.8	-36.2122	224.865	128.75	-53.8702	234.451	144.717	-65.1418	187.763	121.496	-0.218769	187.768	112.313	34.0154	151.019	118.612	16.6218	
124	1.03333	121.678	88.5036	23.6273	99.1961	84.2618	7.14758	78.2881	88.63	-10.8723	60.2453	89.1928	-23.3894	126.291	142.52	-42.2686	123.516	158.317	-61.6157	122.831	173.64	-82.7333	152.926	154.474	-44.2262	156.702	170.478	-61.5616	157.952	192.742	-86.2306	181.761	146.492	-40.4593	182.493	166.262	-57.9934	180.698	182.144	-79.6616	209.49	125.332	-34.7129	217.663	135.648	-49.0764	223.129	152.464	-60.7535	179.811	120.929	1.98492	180.274	110.388	37.1349	144.759	115.979	19.8156	
